<?xml version="1.0" encoding="utf-8" ?>
<svg xmlns="http://www.w3.org/2000/svg" xmlns:xlink="http://www.w3.org/1999/xlink" width="1024" height="1024">
	<path fill="#FEFEFE" d="M0 0L1024 0L1024 1024L0 1024L0 0Z"/>
	<path fill="#E8523D" d="M710.105 308.658C717.617 305.426 725.653 303.988 733.701 302.787C734.644 315.265 734.057 328.108 734.064 340.632C734.07 351.119 734.653 361.965 734.056 372.405C733.178 372.264 732.667 371.747 731.955 371.239L731.954 304.679C725.237 305.972 718.823 307.44 712.399 309.861L710.105 308.658Z"/>
	<path fill="#E8523D" d="M663.896 373.454C665.002 364.286 666.682 355.185 670.474 346.709C678.054 329.77 692.749 315.332 710.105 308.658L712.399 309.861C692.79 318.351 678.583 331.269 670.683 351.529Q668.862 356.22 667.711 361.118Q666.559 366.016 666.099 371.027Q699.027 371.314 731.955 371.239C732.667 371.747 733.178 372.264 734.056 372.405C734.163 372.664 733.96 372.958 733.891 373.23C728.86 374.463 716.814 373.406 711.083 373.374Q687.489 373.198 663.896 373.454Z"/>
	<path fill="#FEFEFE" d="M712.399 309.861C718.823 307.44 725.237 305.972 731.954 304.679L731.955 371.239Q699.027 371.314 666.099 371.027Q666.559 366.016 667.711 361.118Q668.862 356.22 670.683 351.529C678.583 331.269 692.79 318.351 712.399 309.861Z"/>
	<path fill="#010101" d="M664.478 389.057Q697.873 389.241 731.267 388.968C730.895 405.112 731.137 421.29 731.178 437.438C731.198 445.57 731.511 453.824 730.917 461.933C730.579 461.969 730.243 462.014 729.905 462.041C715.169 463.229 697.429 455.437 686.761 445.603C671.015 431.089 665.35 409.781 664.478 389.057Z"/>
	<path fill="#FEFEFE" d="M668.799 391.733L728.597 391.938L728.617 437.713C728.622 444.538 729.443 452.496 728.431 459.198L727.558 459.679Q723.384 459.408 719.277 458.614Q715.17 457.821 711.196 456.517C695.117 451.207 682.898 441.47 675.349 426.152C671.953 419.262 665.27 399.076 667.649 392.08L668.799 391.733Z"/>
	<path fill="#4B71BE" d="M697.689 435.246C698.259 435.27 699.197 435.237 699.765 435.421C701.183 435.879 701.381 436.203 702.051 437.422C702.018 438.939 701.565 439.687 700.793 440.924C700.566 440.889 700.337 440.862 700.111 440.819C698.511 440.521 697.724 440.209 696.793 438.849C696.6 437.322 697.022 436.554 697.689 435.246Z"/>
	<path fill="#4B71BE" d="M719.002 438.426C717.761 438.731 716.546 439.018 715.258 438.918C713.309 438.767 711.539 437.879 710.342 436.315C709.17 434.786 708.709 432.777 709.009 430.881C709.301 429.03 710.358 427.299 711.962 426.306C714.218 424.911 716.715 425.369 719.124 426.027C721.006 427.262 722.192 428.33 722.673 430.608C723.069 432.488 722.571 434.634 721.449 436.191C720.822 437.06 719.89 437.838 719.002 438.426Z"/>
	<path fill="#FEFEFE" d="M713.587 435.933C712.797 434.759 711.869 433.406 711.854 431.94C711.842 430.728 712.019 429.74 712.974 428.905C714.556 427.522 716.436 427.769 718.365 427.916C719.364 429.328 720.53 430.739 720.42 432.572C720.344 433.833 719.901 434.688 718.811 435.363C717.277 436.314 715.293 436.049 713.587 435.933Z"/>
	<path fill="#4B71BE" d="M711.486 398.528C712.839 398.355 714.11 398.203 715.464 398.461C717.494 398.848 719.31 400.244 720.332 402.024Q720.513 402.346 720.662 402.684Q720.811 403.022 720.926 403.373Q721.041 403.725 721.12 404.085Q721.199 404.446 721.243 404.813Q721.286 405.18 721.294 405.549Q721.301 405.919 721.271 406.287Q721.242 406.655 721.176 407.019Q721.11 407.383 721.009 407.738C720.234 410.489 718.602 411.82 716.195 413.164C715.145 413.291 714.05 413.406 712.993 413.309C711.002 413.128 709.214 412.153 708.064 410.513C706.877 408.818 706.588 406.773 706.96 404.761C707.514 401.768 709.028 400.16 711.486 398.528Z"/>
	<path fill="#FEFEFE" d="M712.596 400.964C713.12 400.963 713.645 400.951 714.168 400.985C715.68 401.085 716.984 401.771 717.874 403.019C718.548 403.964 718.728 405.073 718.547 406.204C718.235 408.161 717.11 409.182 715.597 410.322C713.785 410.357 712.066 410.361 710.678 408.974C709.761 408.057 709.373 406.933 709.521 405.645C709.767 403.501 711.02 402.275 712.596 400.964Z"/>
	<path fill="#4B71BE" d="M692.054 408.099C693.268 408.218 694.482 408.342 695.627 408.787Q696.012 408.938 696.38 409.129Q696.748 409.319 697.094 409.546Q697.44 409.773 697.761 410.034Q698.083 410.296 698.375 410.589Q698.667 410.882 698.928 411.204Q699.189 411.526 699.415 411.873Q699.641 412.22 699.83 412.588Q700.02 412.956 700.17 413.342C700.925 415.325 700.768 417.55 699.865 419.456C698.613 422.101 696.54 423.254 693.9 424.231C692.265 423.994 690.669 423.766 689.203 422.955C687.203 421.849 685.636 419.899 685.074 417.672Q684.986 417.33 684.933 416.982Q684.879 416.633 684.861 416.28Q684.843 415.928 684.86 415.576Q684.877 415.223 684.929 414.874Q684.98 414.525 685.067 414.183Q685.154 413.841 685.274 413.509Q685.394 413.177 685.547 412.859Q685.699 412.541 685.883 412.24C687.32 409.858 689.471 408.825 692.054 408.099Z"/>
	<path fill="#FEFEFE" d="M692.051 410.992C692.328 411.023 692.606 411.041 692.882 411.084C694.723 411.372 696.239 411.988 697.229 413.664C697.879 414.764 697.986 415.981 697.677 417.208C697.112 419.449 695.802 420.258 693.926 421.33C691.796 421.078 689.92 420.635 688.597 418.816C687.757 417.662 687.443 416.321 687.864 414.937C688.52 412.785 690.153 411.91 692.051 410.992Z"/>
	<path fill="#010101" d="M747.927 314.293C751.284 314.291 754.705 314.358 758.031 314.827C776.766 317.467 794.734 327.835 806.096 342.962C815.999 356.146 822.411 374.647 820.028 391.248L747.92 391.311L747.927 314.293Z"/>
	<path fill="#FEFEFE" d="M750.539 316.989Q752.194 317.037 753.846 317.162Q755.497 317.288 757.14 317.491Q758.784 317.694 760.416 317.974Q762.048 318.255 763.665 318.612Q765.282 318.969 766.88 319.401Q768.479 319.834 770.055 320.341Q771.632 320.849 773.182 321.43Q774.733 322.011 776.254 322.665Q777.776 323.318 779.265 324.043Q780.754 324.767 782.208 325.561Q783.661 326.355 785.075 327.216Q786.49 328.077 787.862 329.004Q789.234 329.931 790.561 330.922Q791.888 331.912 793.167 332.964Q794.446 334.016 795.674 335.127Q796.902 336.238 798.076 337.406C812.068 351.479 818.044 369.071 817.919 388.628L750.488 388.813Q750.333 352.9 750.539 316.989Z"/>
	<path fill="#010101" d="M753.899 775.645C771.343 774.56 790.822 775.465 808.489 775.489C808.732 778.653 808.676 781.886 808.728 785.062C812.957 785.203 817.209 785.327 820.543 788.275C823.663 791.034 824.359 796.136 824.506 800.079C824.785 807.568 826.153 829.062 821.227 834.026C817.773 837.506 813.385 837.349 808.844 837.427L808.858 843.878Q808.862 849.551 808.767 855.223C789.155 855.201 769.391 855.745 749.799 855.061C749.292 839.84 749.785 824.43 749.755 809.192C749.741 801.832 748.727 786.483 750.215 779.764C750.698 777.58 752.139 776.763 753.899 775.645Z"/>
	<path fill="#FEFEFE" d="M809.302 787.653C812.384 787.686 815.495 787.63 818.081 789.585C820.678 791.549 821.209 794.865 821.579 797.91C822.345 804.207 822.494 823.058 821.01 829.158C820.627 830.73 819.83 831.895 818.85 833.155C815.6 834.82 812.237 834.797 808.671 834.94C808.61 828.453 807.707 790.759 809.302 787.653Z"/>
	<path fill="#FEFEFE" d="M772.487 777.759C783.718 777.537 795.089 777.428 806.314 777.834C805.722 802.742 806.354 827.635 806.28 852.542L786.351 852.573L752.126 852.55C752.066 843.412 750.732 782.601 752.946 778.946C757.859 776.541 767.014 777.75 772.487 777.759Z"/>
	<path fill="#4B71BE" d="M538.069 65.7208C563.616 64.7803 590.513 69.5339 613.303 81.3792Q614.757 82.1476 616.193 82.9486Q617.629 83.7496 619.047 84.5829Q620.465 85.4162 621.863 86.2814Q623.262 87.1465 624.64 88.0431Q626.019 88.9396 627.377 89.8671Q628.735 90.7946 630.071 91.7526Q631.408 92.7106 632.723 93.6986Q634.037 94.6865 635.329 95.7039Q636.621 96.7214 637.89 97.7678Q639.159 98.8142 640.403 99.889Q641.648 100.964 642.868 102.066Q644.088 103.169 645.283 104.299Q646.477 105.429 647.646 106.586Q648.815 107.743 649.958 108.925Q651.1 110.108 652.215 111.317Q653.331 112.525 654.419 113.758Q655.506 114.992 656.566 116.249Q657.626 117.507 658.656 118.788Q659.687 120.069 660.689 121.373Q661.691 122.678 662.663 124.004Q663.635 125.331 664.576 126.679Q665.518 128.027 666.429 129.396Q667.34 130.765 668.22 132.155Q669.099 133.544 669.947 134.953Q670.795 136.362 671.612 137.79Q672.427 139.217 673.211 140.663Q673.995 142.109 674.745 143.572Q675.496 145.035 676.213 146.515Q676.931 147.995 677.614 149.49Q678.298 150.986 678.948 152.497Q679.597 154.007 680.213 155.532Q680.828 157.057 681.409 158.596C684.469 166.786 685.682 175.36 688.344 183.631C697.121 210.901 721.953 228.117 749.907 230.608C768.524 232.268 787.369 229.675 805.99 231.991C821.343 233.901 835.918 239.33 849.602 246.398C880.966 262.599 903.171 291.63 913.735 324.895C924.201 357.853 920.118 395.302 904.187 425.894C885.129 462.49 843.024 489.398 802.045 491.995C782.556 493.23 763.246 490.048 744.25 496.17C727.185 501.669 712.312 513.419 704.248 529.563Q703.499 531.061 702.825 532.594Q702.151 534.127 701.554 535.691Q700.956 537.256 700.438 538.848Q699.919 540.44 699.48 542.056Q699.04 543.672 698.682 545.308Q698.323 546.944 698.046 548.595Q697.769 550.247 697.574 551.91Q697.379 553.573 697.267 555.244Q697.155 556.915 697.126 558.59Q697.097 560.264 697.151 561.938Q697.205 563.612 697.342 565.281Q697.479 566.95 697.699 568.61Q697.918 570.27 698.22 571.917Q698.521 573.565 698.904 575.195Q699.287 576.825 699.75 578.434Q700.214 580.044 700.756 581.628C707.833 602.25 725.997 617.498 746.933 622.728C758.991 625.74 772.23 624.553 784.573 624.537Q825.407 624.111 866.244 624.199C878.774 624.228 892.239 623.351 904.648 624.938Q907.534 625.295 910.38 625.893Q913.226 626.492 916.012 627.326Q918.797 628.161 921.503 629.227Q924.209 630.292 926.816 631.581C943.303 639.751 957.356 655.387 963.192 672.9Q963.631 674.177 964.025 675.469Q964.419 676.761 964.767 678.066Q965.115 679.371 965.417 680.687Q965.718 682.004 965.973 683.33Q966.228 684.656 966.435 685.991Q966.643 687.326 966.803 688.667Q966.963 690.008 967.076 691.354Q967.188 692.699 967.253 694.048Q967.318 695.397 967.335 696.748Q967.352 698.098 967.322 699.449Q967.291 700.799 967.212 702.147Q967.134 703.495 967.007 704.84Q966.881 706.185 966.707 707.524Q966.534 708.864 966.312 710.196Q966.091 711.528 965.823 712.852Q965.555 714.176 965.24 715.489C961.723 729.741 950.328 746.884 943.262 760.315C933.219 779.406 923.449 798.676 913.701 817.926C912.595 820.11 910.695 824.901 908.244 825.695L907.505 825.066C907.492 824.549 907.35 824.017 907.467 823.513C908.018 821.143 915.601 807.767 917.282 804.52C927.718 784.357 937.93 764.042 948.583 743.996C952.084 737.407 956.189 731.009 959.268 724.217C966.563 708.131 965.892 688.037 959.659 671.74C952.484 652.983 936.78 637.491 917.758 630.958C912.995 629.322 908.174 628.192 903.163 627.677C889.111 626.233 874.366 627.046 860.236 627.037L784.283 627.079C766.619 627.111 749.966 628.312 733.39 620.854Q731.886 620.166 730.418 619.405Q728.95 618.644 727.521 617.811Q726.092 616.979 724.705 616.077Q723.319 615.176 721.978 614.207Q720.638 613.239 719.347 612.205Q718.055 611.172 716.816 610.077Q715.577 608.981 714.394 607.826Q713.21 606.671 712.084 605.46Q710.959 604.248 709.894 602.982Q708.83 601.717 707.828 600.401Q706.827 599.084 705.892 597.72Q704.957 596.357 704.089 594.948Q703.222 593.54 702.425 592.091Q701.628 590.642 700.903 589.156Q700.178 587.669 699.528 586.149Q698.877 584.628 698.301 583.078Q697.719 581.509 697.216 579.914Q696.713 578.318 696.29 576.699Q695.867 575.08 695.526 573.442Q695.185 571.804 694.926 570.151Q694.667 568.498 694.49 566.834Q694.314 565.17 694.221 563.499Q694.128 561.828 694.119 560.155Q694.109 558.482 694.184 556.81Q694.258 555.139 694.416 553.473Q694.573 551.807 694.814 550.151Q695.054 548.496 695.377 546.854Q695.7 545.212 696.105 543.589Q696.509 541.965 696.994 540.364Q697.479 538.762 698.044 537.187Q698.608 535.612 699.251 534.067Q699.893 532.522 700.612 531.011C711.398 507.761 733.136 492.831 758.54 489.981C765.679 489.18 772.886 489.379 780.056 489.404C798.915 489.468 816.608 488.774 834.546 482.066C864.519 470.858 891.001 447.562 904.303 418.373C918.98 386.166 920.264 351.301 907.925 318.127C905.104 310.545 901.867 302.944 897.682 296.014C877.273 262.222 839.217 237.146 799.531 234.347C773.624 232.521 747.77 237.801 723.289 226.632C720.566 225.192 717.858 223.729 715.248 222.09C696.089 210.059 687.596 195.271 682.697 173.621C675.149 140.258 651.724 108.556 622.77 90.4366C580.983 64.2868 535.505 65.0073 489.176 75.7379C446.261 85.6778 406.659 102.782 368.351 124.28C351.92 133.501 336.091 143.074 320.888 154.227Q302.169 168.208 284.972 184.025C272.159 195.661 259.867 207.898 249.01 221.403C238.496 234.481 226.679 249.685 222.013 265.963C219.008 276.447 220.652 286.329 221.499 297.003C223.736 325.205 217.701 351.309 200.1 373.883C188.76 388.429 172.599 400.661 155.192 406.963C147.09 409.896 138.68 411.789 130.813 415.397C108.065 425.827 88.4614 445.505 75.3841 466.664C24.9842 548.212 47.2352 654.208 86.3178 735.524C90.6744 744.588 94.923 753.695 99.893 762.449C106.102 773.384 112.262 784.705 119.385 795.062C122.031 798.91 138.442 820.952 138.917 822.983C138.525 824.075 138.573 824.006 137.529 824.514C136.976 824.254 136.777 824.202 136.272 823.729C132.129 819.853 120.388 801.429 116.614 795.71C77.7521 736.819 47.2885 662.07 43.8657 590.989C41.3721 539.205 52.0201 488.05 85.8736 447.464C96.5616 434.651 109.632 422.946 124.547 415.275C133.942 410.445 143.62 407.989 153.487 404.535C168.588 399.249 182.565 389.246 193.229 377.406C211.241 357.409 219.845 332.926 219.187 306.038C218.985 297.784 217.708 289.589 217.343 281.347C216.19 255.304 239.465 226.926 256.227 208.536Q263.114 200.991 270.344 193.775Q277.574 186.558 285.131 179.685Q292.689 172.813 300.557 166.298Q308.426 159.784 316.589 153.643C332.802 141.57 350.152 130.992 367.765 121.11C419.765 91.9352 477.875 68.5887 538.069 65.7208Z"/>
	<path fill="#4B71BE" d="M569.789 157.103C576.345 157.004 583.139 156.607 589.611 157.734Q589.547 166.605 589.718 175.475C594.032 177.165 598.253 178.971 602.294 181.248C606.798 177.373 611.033 173.234 615.296 169.099C619.485 173.204 623.888 177.218 627.621 181.747C623.894 186.439 619.238 190.793 615.158 195.222C618.098 198.919 619.928 203.459 621.913 207.717C627.384 207.37 633.382 207.935 638.848 208.39C639.366 214.621 639.51 220.746 639.039 226.985Q629.928 227.62 620.805 228.055C619.632 232.867 617.839 237.555 616.225 242.235C619.617 247.046 623.927 251.135 627.421 255.887C623.482 259.566 619.837 263.546 615.786 267.104C611.85 262.451 607.361 258.356 602.616 254.544C597.82 256.615 593.142 258.677 588.121 260.158Q588.119 268.743 588.009 277.327C582.437 278.261 575.658 277.753 569.978 277.64L569.63 259.959C564.803 258.041 560.141 255.752 555.289 253.884C550.556 257.359 546.304 262.101 542.213 266.311C537.88 263.037 534.129 258.782 530.478 254.782C533.596 249.789 538.389 245.506 542.536 241.35C540.138 236.71 538.4 231.949 536.708 227.023C530.724 226.977 524.72 227.043 518.75 226.594C517.625 220.582 517.899 214.35 518.66 208.315C524.556 207.88 530.688 208.288 536.604 208.372C538.243 203.589 539.862 199.288 542.787 195.131C539.585 190.317 535.091 186.262 531.035 182.156Q532.204 180.339 533.521 178.627Q534.839 176.914 536.295 175.319Q537.752 173.723 539.337 172.255Q540.922 170.788 542.625 169.458C546.498 173.455 550.163 177.567 554.452 181.133C559.6 179.436 564.57 176.999 569.53 174.815C569.54 168.918 569.421 162.99 569.789 157.103Z"/>
	<path fill="#FEFEFE" d="M578.771 190.699C584.922 191.076 590.469 192.464 595.464 196.313C601.263 200.783 605.346 207.752 606.175 215.046Q606.247 215.701 606.287 216.358Q606.327 217.016 606.335 217.675Q606.342 218.333 606.318 218.992Q606.293 219.65 606.236 220.306Q606.179 220.963 606.09 221.615Q606.001 222.268 605.88 222.916Q605.759 223.563 605.607 224.204Q605.454 224.845 605.27 225.478Q605.086 226.11 604.871 226.733Q604.657 227.356 604.412 227.967Q604.167 228.579 603.892 229.178Q603.617 229.776 603.314 230.361Q603.01 230.946 602.678 231.515Q602.346 232.084 601.986 232.636Q601.627 233.188 601.24 233.721Q600.854 234.255 600.442 234.769C595.262 241.208 588.514 243.886 580.522 244.681C573.926 244.565 568.113 242.569 562.898 238.463C557.164 233.95 553.582 227.528 552.853 220.25Q552.78 219.57 552.742 218.888Q552.703 218.205 552.7 217.522Q552.696 216.838 552.727 216.155Q552.758 215.473 552.823 214.792Q552.888 214.112 552.988 213.436Q553.088 212.759 553.222 212.089Q553.356 211.419 553.523 210.756Q553.691 210.093 553.892 209.44Q554.093 208.787 554.327 208.144Q554.56 207.502 554.826 206.872Q555.092 206.243 555.39 205.627Q555.688 205.012 556.016 204.412Q556.344 203.813 556.702 203.231Q557.061 202.649 557.448 202.085Q557.835 201.522 558.25 200.979Q558.666 200.436 559.108 199.915C564.342 193.829 570.994 191.35 578.771 190.699Z"/>
	<path fill="#E8523D" d="M577.562 198.158C581.806 197.808 586.371 198.694 590.085 200.8C594.451 203.274 597.417 207.382 598.754 212.187C600.297 217.733 599.649 223.819 596.609 228.748C593.102 234.435 588.083 236.791 581.84 238.263C576.791 238.521 571.928 237.527 567.768 234.534C563.355 231.359 560.533 226.493 559.677 221.152Q559.596 220.672 559.538 220.188Q559.48 219.704 559.447 219.218Q559.413 218.732 559.404 218.245Q559.394 217.758 559.408 217.271Q559.423 216.784 559.462 216.298Q559.5 215.812 559.563 215.329Q559.625 214.846 559.711 214.366Q559.798 213.887 559.908 213.412Q560.018 212.937 560.151 212.469Q560.284 212 560.44 211.538Q560.596 211.077 560.775 210.624Q560.954 210.17 561.155 209.727Q561.356 209.283 561.579 208.849Q561.801 208.416 562.045 207.994Q562.289 207.572 562.553 207.163Q562.818 206.754 563.102 206.358C566.662 201.503 571.749 199.093 577.562 198.158Z"/>
	<path fill="#FEFEFE" d="M576.167 202.577C579.413 202.273 582.159 202.152 585.253 203.335Q585.999 203.613 586.713 203.966Q587.426 204.318 588.1 204.741Q588.774 205.165 589.402 205.654Q590.029 206.144 590.604 206.695Q591.178 207.246 591.694 207.853Q592.209 208.46 592.66 209.116Q593.111 209.771 593.492 210.47Q593.874 211.168 594.183 211.902Q594.343 212.293 594.483 212.692Q594.623 213.091 594.742 213.496Q594.862 213.902 594.96 214.313Q595.058 214.724 595.135 215.14Q595.212 215.555 595.267 215.975Q595.322 216.394 595.356 216.815Q595.389 217.236 595.401 217.659Q595.413 218.081 595.403 218.504Q595.393 218.927 595.361 219.348Q595.33 219.77 595.276 220.189Q595.223 220.608 595.148 221.024Q595.073 221.44 594.976 221.852Q594.88 222.263 594.763 222.669Q594.645 223.075 594.507 223.475Q594.369 223.874 594.21 224.266Q594.052 224.658 593.873 225.041C591.658 229.76 587.946 231.963 583.244 233.618C579.993 234.095 577.017 234.085 573.911 232.927Q573.154 232.651 572.428 232.3Q571.703 231.949 571.016 231.526Q570.33 231.103 569.69 230.614Q569.05 230.124 568.463 229.572Q567.876 229.019 567.347 228.411Q566.819 227.802 566.355 227.143Q565.891 226.484 565.496 225.781Q565.101 225.079 564.779 224.34Q564.463 223.62 564.222 222.872Q563.98 222.124 563.817 221.355Q563.653 220.586 563.569 219.804Q563.485 219.023 563.481 218.236Q563.477 217.45 563.553 216.668Q563.63 215.885 563.785 215.115Q563.941 214.344 564.174 213.594Q564.408 212.843 564.717 212.12C566.95 206.973 571.153 204.455 576.167 202.577Z"/>
	<path fill="#EF704C" d="M573.066 221.581C575.537 222.97 579.35 224.047 582.198 223.446C583.013 223.274 583.806 222.888 584.548 222.521C584.494 222.813 584.301 223.936 584.19 224.177C583.672 225.307 582.719 225.237 581.67 225.534C579.57 226.129 577.609 226.565 575.552 225.488C573.856 224.6 573.425 223.34 573.066 221.581Z"/>
	<path fill="#E8523D" d="M573.066 221.581L572.888 220.614L570.789 219.188L570.645 217.991L571.246 217.503L572.457 217.83C573.3 216.729 574.737 214.1 574.685 212.72L571.879 214.232L571.609 213.842C573.421 211.788 576.337 209.799 579.197 209.815C580.732 209.824 582.006 210.652 582.92 211.825C584.688 214.093 585.04 217.488 585.209 220.267L585.756 220.44L586.652 219.896L586.881 220.434C586.674 220.566 586.465 220.696 586.259 220.832C585.597 221.269 584.768 221.725 584.548 222.521C583.806 222.888 583.013 223.274 582.198 223.446C579.35 224.047 575.537 222.97 573.066 221.581Z"/>
	<path fill="#010101" d="M336.24 195.66C361.328 194.627 387.156 195.453 412.313 195.597C424.307 195.665 440.043 194.613 451.561 195.739C453.683 195.946 455.724 196.486 457.586 197.549C460.396 199.153 461.997 201.604 462.797 204.705C464.531 211.436 463.436 232.961 463.462 241.155L463.559 272.322C463.576 278.066 463.834 283.951 463.435 289.679C463.27 292.054 462.843 294.36 461.572 296.409C459.635 299.535 456.707 300.975 453.265 301.869C447.051 302.309 440.62 302.023 434.383 302.016L400.302 301.93C379.983 301.878 359.345 302.732 339.059 301.99C336.924 301.911 334.892 301.809 332.902 300.946C330.549 299.927 327.867 297.754 327.043 295.245C325.732 291.253 325.89 215.041 326.302 207.841C326.443 205.373 326.701 202.704 327.988 200.543C329.869 197.384 332.846 196.444 336.24 195.66Z"/>
	<path fill="#FEFEFE" d="M335.89 198.164C344.069 197.709 352.398 198.034 360.59 198.064L403.963 198.193L432.606 198.091C439.083 198.058 446.716 197.27 453.023 198.752C455.947 199.439 457.911 200.634 459.456 203.272C460.284 204.686 460.53 206.187 460.649 207.799C461.348 217.245 461.995 287.756 460.137 293.405C459.094 296.574 456.733 297.839 453.865 299.161C448.612 299.991 442.76 299.503 437.424 299.477L407.678 299.343C385.397 299.271 362.844 300.326 340.604 299.484C338.167 299.392 335.621 299.14 333.31 298.33C331.723 297.774 330.293 296.358 329.61 294.825C328.07 291.367 328.523 218.193 328.946 208.522C329.03 206.588 329.029 204.05 329.912 202.305C331.129 199.899 333.478 198.973 335.89 198.164Z"/>
	<path fill="#E8523D" d="M442.361 222.709C440.077 222.622 438.217 222.632 436.131 221.561L436.239 220.833C439.625 219.719 441.817 220.336 445.177 221.079C444.239 221.726 443.452 222.342 442.361 222.709Z"/>
	<path fill="#E8523D" d="M445.177 221.079C446.634 222.653 447.04 225.419 447.037 227.561C447.036 228.292 446.978 228.176 446.67 229.026C445.532 228.927 445.567 228.735 444.858 227.9C444.295 227.237 443.918 226.508 443.505 225.747C431.744 238.626 421.411 253.33 410.836 267.195C407.021 272.196 403.334 277.407 399.159 282.112L392.281 274C382.589 262.878 374.155 250.662 363.881 240.046C354.846 250.614 347.739 263.305 338.517 273.501L337.265 273.244L337.18 274.416L337.868 274.107L337.149 273.567C339.202 266.878 358.124 242.863 363.609 236.457C367.716 240.298 371.284 245.067 374.876 249.4L392.84 271.127C395.075 273.403 397.071 276.133 399.129 278.585C402.724 274.277 405.856 269.523 409.28 265.07L427.887 241.225C432.357 235.44 436.802 228.742 442.288 223.877L442.361 222.709C443.452 222.342 444.239 221.726 445.177 221.079Z"/>
	<path fill="#010101" d="M220.682 428.018C237.126 427.395 253.988 427.544 270.443 427.987L270.556 450.345C278.306 450.528 298.168 448.128 303.687 453.482C305.397 455.141 306.446 457.375 306.879 459.699C308 465.701 307.448 472.422 307.434 478.524C307.408 490.607 307.177 502.723 307.586 514.8C310.909 518.173 320.825 525.758 321.973 529.782C321.694 533.973 310.647 543.259 307.434 546.433C306.85 556.443 307.161 566.537 307.301 576.56C307.373 581.679 307.966 587.454 307.041 592.486C306.62 594.777 305.658 597.005 304.022 598.697C302.593 600.175 300.705 601.153 298.711 601.61C292.075 603.132 275.615 602.07 268.25 602.061L217.065 602.367C209.188 602.413 199.84 603.401 192.133 601.991C189.76 601.556 187.687 600.451 185.973 598.749C184.49 597.275 183.399 595.441 182.933 593.394C181.719 588.073 182.376 581.602 182.389 576.125L182.497 546.803C178.404 542.718 173.185 538.994 169.553 534.554C168.315 533.04 167.466 531.5 167.823 529.482C168.572 525.254 178.838 517.733 182.347 515.135L182.21 480.115C182.182 473.618 181.528 466.158 182.841 459.807Q183.018 458.932 183.316 458.09Q183.615 457.248 184.03 456.457Q184.444 455.666 184.966 454.942Q185.489 454.217 186.108 453.574C187.246 452.385 188.489 451.526 190.073 451.045C196.858 448.988 212.834 450.149 220.525 450.113C220.513 442.753 220.405 435.374 220.682 428.018Z"/>
	<path fill="#FEFEFE" d="M184.856 589.864C212.106 590.292 239.401 589.986 266.657 589.987C278.396 589.987 290.445 589.424 302.143 590.068C303.467 590.141 303.794 590.145 304.872 590.905C304.495 592.485 304.098 594.002 303.195 595.378Q302.987 595.694 302.748 595.988Q302.509 596.281 302.242 596.549Q301.976 596.818 301.683 597.058Q301.391 597.298 301.076 597.508Q300.761 597.718 300.427 597.895Q300.092 598.072 299.742 598.215Q299.392 598.358 299.029 598.465Q298.666 598.573 298.294 598.643C292.889 599.646 286.818 599.192 281.315 599.216L252.42 599.303L214.296 599.436C207.531 599.455 200.513 599.841 193.774 599.288C191.916 599.136 190.449 598.814 188.894 597.724C186.148 595.801 185.35 593.011 184.856 589.864Z"/>
	<path fill="#E8523D" d="M223.001 430.47L268.001 430.375L267.946 477.968C252.938 477.814 237.915 477.971 222.906 477.986L223.001 430.47Z"/>
	<path fill="#DADADA" d="M184.995 562.974L265.388 563.245C278.415 563.26 291.927 562.471 304.9 563.28L304.531 564.66C305.419 571.849 305.538 583.627 304.872 590.905C303.794 590.145 303.467 590.141 302.143 590.068C290.445 589.424 278.396 589.987 266.657 589.987C239.401 589.986 212.106 590.292 184.856 589.864C185.379 583.843 184.983 577.45 184.994 571.39L184.995 562.974Z"/>
	<path fill="#FEFEFE" d="M184.995 562.974L265.388 563.245C278.415 563.26 291.927 562.471 304.9 563.28L304.531 564.66C304.335 566.957 304.268 569.199 304.303 571.504C286.969 572.137 269.548 571.674 252.204 571.611C229.806 571.53 207.389 571.689 184.994 571.39L184.995 562.974Z"/>
	<path fill="#DADADA" d="M191.001 453.124C200.504 451.852 210.851 452.722 220.459 452.823C220.469 462.047 220.172 471.38 220.567 480.59C237.132 480.8 253.936 481.039 270.488 480.451C270.502 472.885 270.298 465.253 270.554 457.695C270.529 456.217 270.291 454.583 270.845 453.211C275.904 452.032 296.406 452.123 300.771 454.607C301.933 455.268 302.754 456.395 303.56 457.434C304.252 459.54 304.63 461.404 304.789 463.616L304.723 484.486L304.724 492.011L184.9 492.032L184.884 484.025C184.825 477.018 184.397 469.607 185.217 462.652C185.389 460.683 185.784 458.978 186.381 457.095C187.806 455.442 189.164 454.301 191.001 453.124Z"/>
	<path fill="#FEFEFE" d="M186.381 457.095C189.452 458.502 214.604 456.971 219.973 456.998L219.919 464.092C211.332 464.18 193.726 465.11 185.851 463.756L185.217 462.652C185.389 460.683 185.784 458.978 186.381 457.095Z"/>
	<path fill="#FEFEFE" d="M270.987 457.472C281.522 456.071 292.906 457.597 303.56 457.434C304.252 459.54 304.63 461.404 304.789 463.616L304.276 464.696C300.81 466.34 276.098 465.304 270.916 465.146L270.987 457.472Z"/>
	<path fill="#FEFEFE" d="M184.884 484.025C192.168 484.771 199.77 484.417 207.096 484.319L244.488 483.613C264.53 483.298 284.666 484.26 304.723 484.486L304.724 492.011L184.9 492.032L184.884 484.025Z"/>
	<path fill="#DADADA" d="M184.9 492.032L304.724 492.011C304.804 500.185 304.784 508.372 304.984 516.542C308.502 519.576 311.91 522.619 315.173 525.932C316.525 527.348 317.937 528.737 319.202 530.231C315.038 535.194 310.336 540.314 305.158 544.232C303.991 548.947 303.949 558.566 304.9 563.28C291.927 562.471 278.415 563.26 265.388 563.245L184.995 562.974C184.989 559.54 186.045 546.67 184.86 544.729C181.806 542.964 171.128 533.474 170.345 530.362C170.138 529.537 170.921 528.941 171.379 528.304C175.71 525.185 179.807 518.682 184.716 516.852C184.902 514.56 184.876 512.235 184.924 509.936L184.9 492.032Z"/>
	<path fill="#FEFEFE" d="M184.924 509.936L304.313 509.954L304.457 517.219C284.05 518.668 263.06 517.801 242.598 517.76L207.55 517.639C201.554 517.659 195.464 518.045 189.483 517.799C187.838 517.732 186.188 517.667 184.716 516.852C184.902 514.56 184.876 512.235 184.924 509.936Z"/>
	<path fill="#FEFEFE" d="M304.853 535.986L315.173 525.932C316.525 527.348 317.937 528.737 319.202 530.231C315.038 535.194 310.336 540.314 305.158 544.232C289.968 543.512 188.842 543.067 184.86 544.729C181.806 542.964 171.128 533.474 170.345 530.362C170.138 529.537 170.921 528.941 171.379 528.304C176.201 529.594 178.25 533.545 182.278 536.119C196.173 536.482 210.154 536.167 224.06 536.158L304.853 535.986Z"/>
	<path fill="#DADADA" d="M184.86 544.729C188.842 543.067 289.968 543.512 305.158 544.232C303.991 548.947 303.949 558.566 304.9 563.28C291.927 562.471 278.415 563.26 265.388 563.245L184.995 562.974C184.989 559.54 186.045 546.67 184.86 544.729Z"/>
	<path fill="#010101" d="M504.163 479.642C506.002 479.445 507.828 479.387 509.676 479.353C525.106 479.065 540.274 484.247 551.418 495.149C565.144 508.577 569.453 525.623 569.545 544.265C573.266 547.613 576.37 551.372 576.882 556.547C577.267 560.431 575.987 564.283 573.525 567.289C570.008 571.584 565.534 573.137 560.174 573.581L559.767 576.839C557.126 597.217 547.862 611.911 531.676 624.355C564.056 625.529 596.643 618.39 622.724 642.7C632.767 652.061 641.312 667.968 648.847 679.581C657.43 692.808 666.266 705.884 674.734 719.183C681.552 729.89 688.001 740.866 694.971 751.471C699.067 757.703 703.551 763.688 707.728 769.868C711.396 775.294 714.677 780.965 718.416 786.364C722.013 791.56 726.34 796.5 729.368 802.049C732.048 806.96 733.499 812.21 733.648 817.809C733.907 827.557 729.914 837.42 723.175 844.438C718.202 849.616 711.575 853.368 704.654 855.214C694.576 857.901 682.929 856.941 672.521 856.988Q656.233 856.995 639.948 857.302C649.65 857.602 664.515 857.084 673.599 858.654C682.826 860.249 692.959 859.537 702.33 859.575L752.053 859.585Q834.787 859.194 917.517 859.976L917.623 881.505C871.666 882.64 825.488 881.603 779.509 881.582L514.25 881.595L105.008 881.63Q104.824 870.727 104.914 859.824C162.744 858.832 220.736 859.524 278.579 859.625L320.055 859.952C326.603 859.977 334.4 860.724 340.778 859.384C339.796 859.195 339.191 858.908 338.342 858.383L338.27 857.481C341.662 855.379 377.58 858.055 385.32 856.772C385.031 854.614 376.218 855.363 374.36 855.397Q358.975 855.682 343.587 855.597C335.121 855.601 325.52 856.482 317.284 854.31C311.362 852.748 305.626 849.351 301.138 845.218C293.519 838.204 289.278 828.132 288.969 817.843C288.701 808.898 291.3 800.061 297.609 793.579C304.574 786.421 312.142 772.864 318.086 764.24Q344.905 725.122 371.178 685.636C379.619 673.039 387.212 659.309 396.999 647.711C423.067 616.823 455.893 626.961 491.039 624.063C473.344 610.201 467.058 595.214 463.757 573.504C457.931 572.699 452.999 571.564 449.304 566.507Q448.845 565.884 448.453 565.216Q448.061 564.548 447.74 563.844Q447.419 563.139 447.173 562.405Q446.927 561.67 446.759 560.915Q446.59 560.159 446.501 559.39Q446.412 558.621 446.403 557.847Q446.394 557.072 446.465 556.301Q446.536 555.53 446.687 554.771C447.711 549.653 451.072 546.456 455.273 543.78C456.177 527.954 456.428 516.495 466.211 502.87C475.426 490.036 488.696 482.216 504.163 479.642Z"/>
	<path fill="#FEFEFE" d="M560.432 544.926C563.385 545.234 565.858 545.568 568.423 547.217C571.374 549.113 573.524 552 574.155 555.489C574.99 560.107 573.24 563.416 570.703 567.06C567.352 569.778 564.372 570.489 560.262 571.385L560.432 544.926Z"/>
	<path fill="#FEFEFE" d="M459.221 545.032C460.559 544.972 461.51 544.991 462.825 545.337C464.781 547.929 463.844 566.572 463.849 570.977C461.065 570.574 458.539 570.048 455.861 569.173C453.087 567.555 450.938 565.228 449.84 562.184Q449.618 561.563 449.46 560.922Q449.303 560.282 449.212 559.628Q449.121 558.975 449.098 558.315Q449.075 557.656 449.119 556.998Q449.164 556.34 449.275 555.69Q449.387 555.039 449.565 554.404Q449.743 553.769 449.985 553.155Q450.227 552.542 450.531 551.956C452.432 548.279 455.38 546.293 459.221 545.032Z"/>
	<path fill="#FEFEFE" d="M510.351 772.612C513.487 772.618 516.36 773.042 519.095 774.664Q519.711 775.032 520.286 775.461Q520.862 775.89 521.391 776.374Q521.92 776.859 522.397 777.395Q522.874 777.931 523.294 778.513Q523.714 779.094 524.073 779.716Q524.432 780.337 524.727 780.991Q525.021 781.646 525.247 782.327Q525.474 783.008 525.63 783.708Q525.79 784.405 525.879 785.115Q525.968 785.825 525.984 786.541Q526 787.256 525.944 787.969Q525.888 788.683 525.76 789.387Q525.632 790.091 525.434 790.778Q525.235 791.466 524.968 792.13Q524.701 792.794 524.368 793.427Q524.035 794.06 523.64 794.657C521.315 798.226 518.121 799.965 514.091 800.927C511.03 801.069 508.207 801.001 505.431 799.55Q504.848 799.244 504.297 798.882Q503.747 798.52 503.235 798.105Q502.724 797.69 502.255 797.226Q501.787 796.763 501.367 796.255Q500.947 795.748 500.58 795.201Q500.212 794.655 499.9 794.074Q499.588 793.494 499.335 792.886Q499.082 792.277 498.891 791.647Q498.658 790.886 498.505 790.105Q498.352 789.324 498.28 788.531Q498.209 787.739 498.219 786.943Q498.23 786.147 498.322 785.357Q498.415 784.566 498.588 783.789Q498.761 783.013 499.014 782.258Q499.267 781.503 499.596 780.779Q499.925 780.054 500.327 779.367C502.705 775.385 505.999 773.711 510.351 772.612Z"/>
	<path fill="#FEFEFE" d="M388.83 854.738L580.728 854.839C587.137 854.828 633.487 854.026 635.019 854.598C635.399 854.739 635.672 855.079 635.998 855.32C636.283 856.06 636.398 856.558 636.274 857.354C636.052 858.785 636.087 859.064 634.937 859.922C586.132 860.719 537.191 860 488.373 859.979L419.751 859.953C410.169 859.951 400.449 860.387 390.89 860.104C389.755 860.07 389.034 859.812 388.024 859.313C387.138 858.175 387.164 857.912 387.024 856.456C387.662 855.295 387.611 855.212 388.83 854.738Z"/>
	<path fill="#FEFEFE" d="M488.013 626.662C490.245 626.556 492.704 626.286 494.918 626.591C500.227 627.322 505.041 630.228 510.492 630.379C517.222 630.565 522.885 627.158 529.309 626.615C531.577 626.423 534.012 626.7 536.284 626.851C536.553 642.505 535.597 657.609 528.49 671.871C527.186 673.917 525.903 675.899 524.158 677.61C520.827 680.875 516.327 683.342 511.554 683.248C507.438 683.167 503.896 681.114 501.109 678.191C489.354 665.858 487.385 642.719 488.013 626.662Z"/>
	<path fill="#FEFEFE" d="M493.772 511.871C495.771 513.947 497.388 518.796 498.771 521.498C503.292 530.338 512.469 538.475 521.993 541.44C535.229 545.562 546.236 541.714 557.907 535.565C558.379 548.601 558.637 566.655 556.921 579.396C554.595 596.668 545.312 610.397 531.737 620.853C525.2 625.125 518.972 627.72 511.04 627.629C500.303 627.507 491.728 622.118 484.437 614.592C464.416 593.928 466.061 568.159 466.456 541.551C479.421 535.546 488.431 524.975 493.772 511.871Z"/>
	<path fill="#010101" d="M501.299 602.694C505.074 601.994 520.12 601.512 523.491 602.615C524.354 602.898 524.238 603.087 524.639 603.841C521.264 605.378 507.298 605.239 503.344 604.504C501.976 604.249 501.995 603.826 501.299 602.694Z"/>
	<path fill="#010101" d="M510.55 560.696C511.535 561.108 512.137 561.346 512.807 562.196C513.236 570.117 513.7 586.435 512.529 593.798L511.084 593.209C509.371 590.252 510.462 565.453 510.55 560.696Z"/>
	<path fill="#010101" d="M489.945 554.957Q490.595 555.031 491.241 555.128C493.371 555.457 494.988 556.257 496.194 558.118C497.227 559.713 497.452 561.554 496.911 563.372C496.233 565.656 495 566.656 492.991 567.802C492.801 567.797 492.611 567.798 492.421 567.788C490.24 567.682 488.058 567.454 486.634 565.564C485.575 564.158 485.06 562.566 485.406 560.813C485.958 558.012 487.629 556.426 489.945 554.957Z"/>
	<path fill="#010101" d="M531.515 555.483C532.381 555.479 533.255 555.462 534.117 555.566C535.792 555.768 537.329 556.841 538.328 558.176Q538.509 558.419 538.664 558.68Q538.818 558.941 538.945 559.216Q539.071 559.492 539.167 559.779Q539.264 560.067 539.33 560.363Q539.396 560.659 539.43 560.96Q539.465 561.261 539.467 561.564Q539.47 561.867 539.44 562.169Q539.411 562.471 539.35 562.768C538.867 565.218 537.422 566.478 535.433 567.807C534.416 567.929 533.382 567.991 532.363 567.846C530.771 567.621 529.301 566.605 528.403 565.288C527.492 563.951 527.282 562.258 527.576 560.691C528.063 558.099 529.441 556.947 531.515 555.483Z"/>
	<path fill="#FEFEFE" d="M449.404 627.258Q467.401 627.041 485.399 627.029C485.161 643.874 486.873 666.403 498.975 679.47C502.389 683.156 506.794 685.927 511.949 685.958C517.03 685.99 521.696 683.494 525.266 680.015C538.353 667.265 538.791 644.101 539.005 627.107C568.989 627.012 598.891 622.872 622.419 645.718C629.363 652.46 636.278 665.14 641.805 673.49C659.801 700.678 676.972 728.401 694.783 755.706L717.837 790.431C721.033 795.156 724.939 799.5 727.668 804.52C730.039 808.883 731.068 813.743 731.08 818.685C731.101 827.71 727.108 836.684 720.75 843.031Q719.859 843.906 718.914 844.721Q717.968 845.537 716.971 846.288Q715.974 847.04 714.931 847.726Q713.887 848.411 712.801 849.026Q711.715 849.642 710.591 850.186Q709.467 850.729 708.31 851.199Q707.153 851.668 705.967 852.061Q704.782 852.453 703.574 852.768C694.259 855.183 683.556 854.321 673.958 854.392L638.889 854.546C639.759 836.497 642.517 818.256 644.314 800.252C648.789 800.162 672.492 800.887 674.302 799.158L674.116 798.394C669.038 796.24 650.964 797.463 644.596 797.5C645.891 787.2 653.172 718.889 652.152 714.327C651.393 710.931 648.992 709.333 646.244 707.541C644.052 707.266 641.832 707.267 639.625 707.205L459.88 707.28L408.604 707.14C399.856 707.112 390.769 706.594 382.053 707.239C378.703 707.488 376.176 708.423 373.991 711.062C372.131 713.308 372.046 716.686 371.986 719.493C371.802 728.073 373.536 737.442 374.422 746Q377.191 771.982 379.625 797.998C371.994 798.126 363.381 797.011 355.909 798.345C355.136 798.483 355.502 798.336 354.903 799.211L355.219 799.961C357.912 801.494 375.252 800.557 379.809 800.825C380.971 809.457 381.643 818.189 382.468 826.859C383.296 835.549 384.338 844.282 384.491 853.015Q365.131 852.942 345.771 853.068C338.066 853.089 329.87 853.615 322.256 852.332Q320.635 852.051 319.046 851.626Q317.456 851.201 315.911 850.637Q314.366 850.072 312.878 849.371Q311.389 848.671 309.969 847.84C301.795 843.154 295.36 835.863 292.906 826.652C291.363 820.857 290.904 808.992 294.037 803.775C297.656 797.752 302.22 792.631 306.13 786.834L343.082 732.423Q360.739 706.365 378.093 680.105C385.762 668.533 393.446 654.927 403.132 644.973C415.135 632.638 432.669 627.56 449.404 627.258Z"/>
</svg>
